<?xml version="1.0" encoding="utf-8" standalone="no"?>
<!DOCTYPE svg PUBLIC "-//W3C//DTD SVG 1.1//EN"
  "http://www.w3.org/Graphics/SVG/1.1/DTD/svg11.dtd">
<svg xmlns:xlink="http://www.w3.org/1999/xlink" width="539.398533pt" height="709.799359pt" viewBox="0 0 539.398533 709.799359" xmlns="http://www.w3.org/2000/svg" version="1.1">
 <metadata>
  <rdf:RDF xmlns:dc="http://purl.org/dc/elements/1.1/" xmlns:cc="http://creativecommons.org/ns#" xmlns:rdf="http://www.w3.org/1999/02/22-rdf-syntax-ns#">
   <cc:Work>
    <dc:type rdf:resource="http://purl.org/dc/dcmitype/StillImage"/>
    <dc:date>2025-11-09T20:18:39.641595</dc:date>
    <dc:format>image/svg+xml</dc:format>
    <dc:creator>
     <cc:Agent>
      <dc:title>Matplotlib v3.10.7, https://matplotlib.org/</dc:title>
     </cc:Agent>
    </dc:creator>
   </cc:Work>
  </rdf:RDF>
 </metadata>
 <defs>
  <style type="text/css">*{stroke-linejoin: round; stroke-linecap: butt}</style>
 </defs>
 <g id="figure_1">
  <g id="patch_1">
   <path d="M 0 709.799359 
L 539.398533 709.799359 
L 539.398533 0 
L 0 0 
z
" style="fill: #ffffff"/>
  </g>
  <g id="axes_1">
   <g id="patch_2">
    <path d="M 7.2 702.599359 
L 450.72 702.599359 
L 450.72 259.079359 
L 7.2 259.079359 
z
" style="fill: #ffffff"/>
   </g>
   <g id="patch_3">
    <path d="M 228.96 628.679359 
C 268.167626 628.679359 305.774688 613.102004 333.498667 585.378026 
C 361.222645 557.654047 376.8 520.046985 376.8 480.839359 
C 376.8 441.631733 361.222645 404.024671 333.498667 376.300693 
C 305.774688 348.576714 268.167626 332.999359 228.96 332.999359 
C 189.752374 332.999359 152.145312 348.576714 124.421333 376.300693 
C 96.697355 404.024671 81.12 441.631733 81.12 480.839359 
C 81.12 520.046985 96.697355 557.654047 124.421333 585.378026 
C 152.145312 613.102004 189.752374 628.679359 228.96 628.679359 
L 228.96 628.679359 
z
" clip-path="url(#pd19081f716)" style="fill: none; stroke-dasharray: 5.55,2.4; stroke-dashoffset: 0; stroke: #cccccc; stroke-width: 1.5; stroke-linejoin: miter"/>
   </g>
   <g id="patch_4">
    <path d="M 350.591536 410.615359 
L 344.387944 417.611223 
L 342.946504 415.114576 
L 228.99696 480.903376 
L 228.92304 480.775343 
L 342.872584 414.986543 
L 341.431144 412.489895 
z
" clip-path="url(#pd19081f716)" style="fill: #1f77b4; stroke: #1f77b4; stroke-linejoin: miter"/>
   </g>
   <g id="patch_5">
    <path d="M 276.996045 348.86141 
L 276.740673 358.208145 
L 274.031652 357.222141 
L 229.029462 480.864641 
L 228.890538 480.814077 
L 273.892728 357.171577 
L 271.183706 356.185574 
z
" clip-path="url(#pd19081f716)" style="fill: #ff7f0e; stroke: #ff7f0e; stroke-linejoin: miter"/>
   </g>
   <g id="patch_6">
    <path d="M 319.238234 373.249949 
L 315.801491 381.945664 
L 313.593077 380.092585 
L 229.016626 480.886874 
L 228.903374 480.791844 
L 313.479825 379.997555 
L 311.271411 378.144475 
z
" clip-path="url(#pd19081f716)" style="fill: #2ca02c; stroke: #2ca02c; stroke-linejoin: miter"/>
   </g>
   <g id="patch_7">
    <path d="M 228.96 340.391359 
L 231.9168 349.261759 
L 229.03392 349.261759 
L 229.03392 480.839359 
L 228.88608 480.839359 
L 228.88608 349.261759 
L 226.0032 349.261759 
z
" clip-path="url(#pd19081f716)" style="fill: #d62728; stroke: #d62728; stroke-linejoin: miter"/>
   </g>
   <g id="patch_8">
    <path d="M 502.587174 6.903192 
L 500.712638 16.063583 
L 498.21599 14.622143 
L 229.024017 480.876319 
L 228.895983 480.802399 
L 498.087957 14.548223 
L 495.59131 13.106783 
z
" clip-path="url(#pd19081f716)" style="fill: #333333; stroke: #333333; stroke-linejoin: miter"/>
   </g>
   <g id="patch_9">
    <path d="M 299.184 359.207823 
L 297.21043 370.018147 
L 294.073617 368.207107 
L 229.024017 480.876319 
L 228.895983 480.802399 
L 293.945583 368.133187 
L 290.80877 366.322147 
z
" clip-path="url(#pd19081f716)" style="fill: #ff0000; stroke: #ff0000; stroke-width: 2; stroke-linejoin: miter"/>
   </g>
   <g id="matplotlib.axis_1"/>
   <g id="matplotlib.axis_2"/>
   <g id="line2d_1">
    <path d="M 228.96 480.839359 
L 356.993196 406.919359 
" clip-path="url(#pd19081f716)" style="fill: none; stroke-dasharray: 0.8,1.32; stroke-dashoffset: 0; stroke: #808080; stroke-width: 0.8"/>
   </g>
   <g id="line2d_2">
    <path d="M 228.96 480.839359 
L 279.524258 341.915202 
" clip-path="url(#pd19081f716)" style="fill: none; stroke-dasharray: 0.8,1.32; stroke-dashoffset: 0; stroke: #808080; stroke-width: 0.8"/>
   </g>
   <g id="line2d_3">
    <path d="M 228.96 480.839359 
L 323.98972 367.587349 
" clip-path="url(#pd19081f716)" style="fill: none; stroke-dasharray: 0.8,1.32; stroke-dashoffset: 0; stroke: #808080; stroke-width: 0.8"/>
   </g>
   <g id="line2d_4">
    <path d="M 228.96 480.839359 
L 228.96 332.999359 
" clip-path="url(#pd19081f716)" style="fill: none; stroke-dasharray: 0.8,1.32; stroke-dashoffset: 0; stroke: #808080; stroke-width: 0.8"/>
   </g>
   <g id="patch_10">
    <path d="M 228.96 702.599359 
L 228.96 259.079359 
" style="fill: none; stroke: #000000; stroke-width: 0.8; stroke-linejoin: miter; stroke-linecap: square"/>
   </g>
   <g id="patch_11">
    <path d="M 450.72 702.599359 
L 450.72 259.079359 
" style="fill: none"/>
   </g>
   <g id="patch_12">
    <path d="M 7.2 480.839359 
L 450.72 480.839359 
" style="fill: none; stroke: #000000; stroke-width: 0.8; stroke-linejoin: miter; stroke-linecap: square"/>
   </g>
   <g id="patch_13">
    <path d="M 7.2 259.079359 
L 450.72 259.079359 
" style="fill: none"/>
   </g>
   <g id="text_1">
    <!-- $x_1$ -->
    <g transform="translate(361.236515 403.659859) scale(0.16 -0.16)">
     <defs>
      <path id="DejaVuSans-Oblique-78" d="M 3841 3500 
L 2234 1784 
L 3219 0 
L 2559 0 
L 1819 1388 
L 531 0 
L -166 0 
L 1556 1844 
L 641 3500 
L 1300 3500 
L 1972 2234 
L 3144 3500 
L 3841 3500 
z
" transform="scale(0.015625)"/>
      <path id="DejaVuSans-31" d="M 794 531 
L 1825 531 
L 1825 4091 
L 703 3866 
L 703 4441 
L 1819 4666 
L 2450 4666 
L 2450 531 
L 3481 531 
L 3481 0 
L 794 0 
L 794 531 
z
" transform="scale(0.015625)"/>
     </defs>
     <use xlink:href="#DejaVuSans-Oblique-78" transform="translate(0 0.3125)"/>
     <use xlink:href="#DejaVuSans-31" transform="translate(59.179688 -16.09375) scale(0.7)"/>
    </g>
   </g>
   <g id="text_2">
    <!-- $x_2$ -->
    <g transform="translate(276.020684 332.155286) scale(0.16 -0.16)">
     <defs>
      <path id="DejaVuSans-32" d="M 1228 531 
L 3431 531 
L 3431 0 
L 469 0 
L 469 531 
Q 828 903 1448 1529 
Q 2069 2156 2228 2338 
Q 2531 2678 2651 2914 
Q 2772 3150 2772 3378 
Q 2772 3750 2511 3984 
Q 2250 4219 1831 4219 
Q 1534 4219 1204 4116 
Q 875 4013 500 3803 
L 500 4441 
Q 881 4594 1212 4672 
Q 1544 4750 1819 4750 
Q 2544 4750 2975 4387 
Q 3406 4025 3406 3419 
Q 3406 3131 3298 2873 
Q 3191 2616 2906 2266 
Q 2828 2175 2409 1742 
Q 1991 1309 1228 531 
z
" transform="scale(0.015625)"/>
     </defs>
     <use xlink:href="#DejaVuSans-Oblique-78" transform="translate(0 0.3125)"/>
     <use xlink:href="#DejaVuSans-32" transform="translate(59.179688 -16.09375) scale(0.7)"/>
    </g>
   </g>
   <g id="text_3">
    <!-- $x_3$ -->
    <g transform="translate(324.932692 360.394648) scale(0.16 -0.16)">
     <defs>
      <path id="DejaVuSans-33" d="M 2597 2516 
Q 3050 2419 3304 2112 
Q 3559 1806 3559 1356 
Q 3559 666 3084 287 
Q 2609 -91 1734 -91 
Q 1441 -91 1130 -33 
Q 819 25 488 141 
L 488 750 
Q 750 597 1062 519 
Q 1375 441 1716 441 
Q 2309 441 2620 675 
Q 2931 909 2931 1356 
Q 2931 1769 2642 2001 
Q 2353 2234 1838 2234 
L 1294 2234 
L 1294 2753 
L 1863 2753 
Q 2328 2753 2575 2939 
Q 2822 3125 2822 3475 
Q 2822 3834 2567 4026 
Q 2313 4219 1838 4219 
Q 1578 4219 1281 4162 
Q 984 4106 628 3988 
L 628 4550 
Q 988 4650 1302 4700 
Q 1616 4750 1894 4750 
Q 2613 4750 3031 4423 
Q 3450 4097 3450 3541 
Q 3450 3153 3228 2886 
Q 3006 2619 2597 2516 
z
" transform="scale(0.015625)"/>
     </defs>
     <use xlink:href="#DejaVuSans-Oblique-78" transform="translate(0 0.3125)"/>
     <use xlink:href="#DejaVuSans-33" transform="translate(59.179688 -16.09375) scale(0.7)"/>
    </g>
   </g>
   <g id="text_4">
    <!-- $x_4$ -->
    <g transform="translate(220.4 322.347859) scale(0.16 -0.16)">
     <defs>
      <path id="DejaVuSans-34" d="M 2419 4116 
L 825 1625 
L 2419 1625 
L 2419 4116 
z
M 2253 4666 
L 3047 4666 
L 3047 1625 
L 3713 1625 
L 3713 1100 
L 3047 1100 
L 3047 0 
L 2419 0 
L 2419 1100 
L 313 1100 
L 313 1709 
L 2253 4666 
z
" transform="scale(0.015625)"/>
     </defs>
     <use xlink:href="#DejaVuSans-Oblique-78" transform="translate(0 0.3125)"/>
     <use xlink:href="#DejaVuSans-34" transform="translate(59.179688 -16.09375) scale(0.7)"/>
    </g>
   </g>
   <g id="text_5">
    <!-- $\sum x_i$ -->
    <g transform="translate(500.338533 25.56) scale(0.18 -0.18)">
     <defs>
      <path id="DejaVuSansDisplay-2211" d="M 244 6509 
L 5803 6509 
L 5803 5656 
L 1566 5656 
L 4534 2488 
L 1469 -888 
L 5919 -888 
L 5919 -1738 
L 109 -1738 
L 109 -1078 
L 3316 2463 
L 244 5728 
L 244 6509 
z
" transform="scale(0.015625)"/>
      <path id="DejaVuSans-Oblique-69" d="M 1172 4863 
L 1747 4863 
L 1606 4134 
L 1031 4134 
L 1172 4863 
z
M 909 3500 
L 1484 3500 
L 800 0 
L 225 0 
L 909 3500 
z
" transform="scale(0.015625)"/>
     </defs>
     <use xlink:href="#DejaVuSansDisplay-2211" transform="translate(0 0.296875)"/>
     <use xlink:href="#DejaVuSans-Oblique-78" transform="translate(95.263672 0.296875)"/>
     <use xlink:href="#DejaVuSans-Oblique-69" transform="translate(154.443359 -16.109375) scale(0.7)"/>
    </g>
   </g>
   <g id="text_6">
    <!-- c -->
    <g style="fill: #ff0000" transform="translate(308.968 345.168469) scale(0.2 -0.2)">
     <defs>
      <path id="ArialUnicodeMS-63" d="M 3144 1147 
Q 3034 513 2643 217 
Q 2253 -78 1759 -78 
Q 1038 -78 644 395 
Q 250 869 250 1650 
Q 250 2297 476 2686 
Q 703 3075 1043 3233 
Q 1384 3391 1759 3391 
Q 2272 3391 2636 3125 
Q 3000 2859 3084 2344 
L 2541 2259 
Q 2456 2594 2267 2762 
Q 2078 2931 1784 2931 
Q 1313 2931 1069 2597 
Q 825 2263 825 1663 
Q 825 1050 1064 717 
Q 1303 384 1753 384 
Q 2116 384 2323 592 
Q 2531 800 2584 1216 
L 3144 1147 
z
" transform="scale(0.015625)"/>
     </defs>
     <use xlink:href="#ArialUnicodeMS-63"/>
    </g>
   </g>
  </g>
 </g>
 <defs>
  <clipPath id="pd19081f716">
   <rect x="7.2" y="259.079359" width="443.52" height="443.52"/>
  </clipPath>
 </defs>
</svg>
